# xmcd CD database file
#
# Track frame offsets:
#	150
#	15441
#	31615
#	47204
#	65812
#	82797
#	92062
#	117874
#	129268
#	155347
#	167411
#
# Disc length: 2662 seconds
#
# Revision: 0
# Processed by: cddbd v1.5.1PL0 Copyright (c) Steve Scherf et al.
# Submitted via: CDex 1.51
#
DISCID=760a640b
DTITLE=Tres Hombres - Sesiones 224 226
DYEAR=2003
DGENRE=Blues
TTITLE0=Menphis Train
TTITLE1=Jesus Just Left Chicago
TTITLE2=Jan jan
TTITLE3=Over and over
TTITLE4=Midnight Cowboy
TTITLE5=I Wanna know
TTITLE6=Get up
TTITLE7=Out of sight
TTITLE8=Messin around
TTITLE9=I need you
TTITLE10=Since I Been Loving you
EXTD=YEAR: 2003
EXTT0=
EXTT1=
EXTT2=
EXTT3=
EXTT4=
EXTT5=
EXTT6=
EXTT7=
EXTT8=
EXTT9=
EXTT10=
PLAYORDER=
